<svg xmlns="http://www.w3.org/2000/svg" viewBox="0 0 90 20"><rect x="15.8" y="12.11" width="8.42" height="3.37" rx="1.68" transform="translate(33.8 -6.23) rotate(90)" fill="#39f"/><rect x="22.54" y="11.26" width="6.74" height="3.37" rx="1.68" transform="translate(38.86 -12.96) rotate(90)" fill="#39f"/><path d="M28.52,7.89H14.86a7.89,7.89,0,0,1,.19,1.69,7.72,7.72,0,0,1-.19,1.68H28.52A1.68,1.68,0,0,0,30.2,9.58h0A1.69,1.69,0,0,0,28.52,7.89Z" fill="#39f"/><path d="M15,7.89a7.59,7.59,0,1,0,0,3.37,7.72,7.72,0,0,0,.19-1.68A7.89,7.89,0,0,0,15,7.89ZM7.58,16.4a6.82,6.82,0,1,1,6.61-8.51,6.75,6.75,0,0,1,.21,1.69,6.67,6.67,0,0,1-.21,1.68A6.82,6.82,0,0,1,7.58,16.4Z" fill="#39f"/><path d="M1.52,9.58a6.06,6.06,0,1,1,6.06,6.06A6.06,6.06,0,0,1,1.52,9.58Zm9.09,0a3,3,0,1,0-3,3A3,3,0,0,0,10.61,9.58Z" fill="#36c"/><circle cx="7.58" cy="9.58" r="0.89" fill="#06c"/><path d="M37.28,14.24a2.93,2.93,0,0,1-1.19-2.34H39a1.09,1.09,0,0,0,.31.75,1,1,0,0,0,.69.24,1,1,0,0,0,.62-.19.62.62,0,0,0,.24-.52.75.75,0,0,0-.4-.68A8.16,8.16,0,0,0,39.15,11a11.73,11.73,0,0,1-1.56-.62,2.87,2.87,0,0,1-1-.88A2.43,2.43,0,0,1,36.11,8a2.73,2.73,0,0,1,.48-1.63,3,3,0,0,1,1.32-1,5,5,0,0,1,1.9-.35,4.37,4.37,0,0,1,2.75.8A2.9,2.9,0,0,1,43.66,8h-3a.9.9,0,0,0-.27-.67,1,1,0,0,0-.67-.22.7.7,0,0,0-.5.18.67.67,0,0,0-.2.52.61.61,0,0,0,.22.48,1.8,1.8,0,0,0,.54.35c.21.1.53.22,1,.37a13.13,13.13,0,0,1,1.55.64,3.25,3.25,0,0,1,1.05.88A2.31,2.31,0,0,1,43.79,12a3,3,0,0,1-.44,1.58,3,3,0,0,1-1.28,1.1,4.31,4.31,0,0,1-2,.41A4.58,4.58,0,0,1,37.28,14.24Z" fill="#39f"/><path d="M53.89,5.09V15H51.15V11H47.8v4H45.06V5.09H47.8V8.8h3.35V5.09Z" fill="#39f"/><path d="M57.65,14.41A4.87,4.87,0,0,1,55.8,12.6,5.07,5.07,0,0,1,55.13,10a5.07,5.07,0,0,1,.67-2.61,4.84,4.84,0,0,1,1.85-1.8,5.4,5.4,0,0,1,5.1,0,4.79,4.79,0,0,1,1.83,1.8A5.17,5.17,0,0,1,65.25,10a5.17,5.17,0,0,1-.67,2.61,4.78,4.78,0,0,1-1.84,1.81,5.31,5.31,0,0,1-5.09,0Zm4.2-2.58A2.65,2.65,0,0,0,62.46,10a2.65,2.65,0,0,0-.61-1.85,2.37,2.37,0,0,0-3.32,0,2.69,2.69,0,0,0-.6,1.85,2.66,2.66,0,0,0,.6,1.84,2.07,2.07,0,0,0,1.66.68A2.12,2.12,0,0,0,61.85,11.83Z" fill="#39f"/><path d="M71.48,15l-2-3.64h-.3V15H66.48V5.09h4.33a4.39,4.39,0,0,1,2,.42,2.87,2.87,0,0,1,1.25,1.13,3.16,3.16,0,0,1,.42,1.62A2.94,2.94,0,0,1,73.93,10a2.9,2.9,0,0,1-1.61,1.08L74.54,15ZM69.22,9.45h1.36a1.16,1.16,0,0,0,.84-.27,1,1,0,0,0,.28-.77,1,1,0,0,0-.28-.75,1.19,1.19,0,0,0-.84-.27H69.22Z" fill="#39f"/><path d="M83.17,5.09V7.28H80.54V15H77.79V7.28h-2.6V5.09Z" fill="#39f"/><path d="M86.93,12.86H90V15H84.19V5.09h2.74Z" fill="#39f"/></svg>