<?xml version="1.0" standalone="no"?>
<!DOCTYPE svg PUBLIC "-//W3C//DTD SVG 20010904//EN"
 "http://www.w3.org/TR/2001/REC-SVG-20010904/DTD/svg10.dtd">
<svg version="1.0" xmlns="http://www.w3.org/2000/svg"
 width="512.000000pt" height="512.000000pt" viewBox="0 0 512.000000 512.000000"
 preserveAspectRatio="xMidYMid meet">
<metadata>
Created by potrace 1.14, written by Peter Selinger 2001-2017
</metadata>
<g transform="translate(0.000000,512.000000) scale(0.100000,-0.100000)"
fill="#000000" stroke="none">
<path d="M1327 3804 c-1 -1 -31 -4 -67 -8 -89 -8 -212 -39 -305 -76 -548 -218
-853 -818 -704 -1387 76 -290 241 -522 489 -687 272 -182 576 -239 915 -171
17 4 64 17 105 31 367 122 649 412 760 782 20 65 24 72 48 73 28 1 429 1 469
0 l22 -1 3 -432 3 -433 29 -44 c40 -63 83 -98 140 -117 134 -45 262 9 327 136
23 45 24 46 24 467 0 275 4 423 10 424 55 4 367 0 373 -5 3 -4 7 -134 7 -289
1 -261 3 -285 21 -327 30 -65 67 -105 126 -134 143 -71 317 4 368 158 9 29 13
118 13 313 0 152 4 276 9 279 5 3 53 7 106 8 76 2 106 7 137 23 200 105 202
369 3 475 l-43 23 -905 2 c-498 1 -987 2 -1087 2 l-182 1 -11 43 c-84 322
-332 616 -641 761 -42 20 -83 36 -91 36 -8 0 -18 4 -24 9 -13 13 -171 50 -245
57 -56 6 -198 11 -202 8z m181 -129 c155 -12 323 -74 471 -172 229 -153 394
-400 449 -673 28 -138 23 -331 -11 -462 -49 -185 -142 -349 -276 -485 -72 -74
-204 -171 -281 -206 -140 -64 -202 -82 -350 -102 -73 -10 -211 -6 -300 10
-409 71 -739 377 -845 783 -55 214 -34 464 56 675 148 348 492 600 868 635 76
7 103 7 219 -3z"/>
<path d="M1190 3545 c-116 -27 -166 -46 -248 -91 -224 -122 -383 -321 -459
-571 -24 -80 -26 -104 -26 -253 -1 -139 3 -177 21 -243 98 -355 375 -613 737
-688 91 -19 286 -16 379 5 321 73 588 312 690 616 67 201 67 397 1 610 -18 56
-68 157 -111 221 -133 201 -356 350 -598 401 -99 20 -281 17 -386 -7z m295
-460 c102 -15 241 -111 303 -210 95 -150 93 -364 -6 -507 -117 -170 -313 -245
-510 -194 -150 38 -273 154 -328 307 -8 24 -17 79 -19 121 -6 140 38 253 139
353 114 115 247 155 421 130z"/>
<path d="M1334 2750 c-47 -20 -74 -58 -81 -110 -8 -61 40 -134 96 -146 14 -3
32 -8 39 -10 26 -8 101 34 122 68 71 117 -51 255 -176 198z"/>
</g>
</svg>
